<?xml version="1.0" encoding="UTF-8" standalone="no"?>
<svg
   width="64"
   height="64"
   viewBox="0 0 64 64"
   version="1.1"
   id="svg3"
   sodipodi:docname="favicon.svg"
   inkscape:version="1.4.2 (f4327f4, 2025-05-13)"
   xmlns:inkscape="http://www.inkscape.org/namespaces/inkscape"
   xmlns:sodipodi="http://sodipodi.sourceforge.net/DTD/sodipodi-0.dtd"
   xmlns="http://www.w3.org/2000/svg"
   xmlns:svg="http://www.w3.org/2000/svg">
  <defs
     id="defs3" />
  <sodipodi:namedview
     id="namedview3"
     pagecolor="#ffffff"
     bordercolor="#000000"
     borderopacity="0.25"
     inkscape:showpageshadow="2"
     inkscape:pageopacity="0.0"
     inkscape:pagecheckerboard="0"
     inkscape:deskcolor="#d1d1d1"
     inkscape:zoom="11.484375"
     inkscape:cx="32"
     inkscape:cy="32"
     inkscape:window-width="1920"
     inkscape:window-height="974"
     inkscape:window-x="-11"
     inkscape:window-y="-11"
     inkscape:window-maximized="1"
     inkscape:current-layer="svg3" />
  <!-- Card background with rounded corners -->
  <rect
     x="4"
     y="2"
     width="56"
     height="60"
     rx="6"
     ry="6"
     fill="#fff"
     stroke="#1a1a2e"
     stroke-width="2"
     id="rect1" />
  <!-- Spade symbol -->
  <path
     d="M32 12 C32 12, 16 26, 16 34 C16 40, 21 43, 26 40 C28 39, 30 37, 32 34 L32 48 L24 48 L24 50 L40 50 L40 48 L32 48 L32 34 C34 37, 36 39, 38 40 C43 43, 48 40, 48 34 C48 26, 32 12, 32 12Z"
     fill="#1a1a2e"
     id="path1" />
  <!-- Corner label "A" top-left -->
  <text
     x="7.3579102"
     y="15.738775"
     font-family="Georgia, serif"
     font-size="11px"
     font-weight="bold"
     fill="#1a1a2e"
     id="text1">A</text>
  <!-- Mini spade top-left -->
  <path
     d="M12 18 C12 18, 8 22, 8 24 C8 26, 10 27, 11 26 C11.5 25.5, 12 25, 12 24 L12 28 L10 28 L10 29 L14 29 L14 28 L12 28 L12 24 C12 25, 12.5 25.5, 13 26 C14 27, 16 26, 16 24 C16 22, 12 18, 12 18Z"
     fill="#1a1a2e"
     id="path2" />
  <!-- Corner label "A" bottom-right (rotated) -->
  <text
     x="-56.64209"
     y="-50"
     font-family="Georgia, serif"
     font-size="11px"
     font-weight="bold"
     fill="#1a1a2e"
     transform="scale(-1)"
     id="text2">A</text>
  <!-- Mini spade bottom-right (rotated) -->
  <g
     transform="rotate(180,52.471436,41.042177)"
     id="g3">
    <path
       d="m 52,34 c 0,0 -4,4 -4,6 0,2 2,3 3,2 0.5,-0.5 1,-1 1,-2 v 4 h -2 v 1 h 4 v -1 h -2 v -4 c 0,1 0.5,1.5 1,2 1,1 3,0 3,-2 0,-2 -4,-6 -4,-6 z"
       fill="#1a1a2e"
       id="path3" />
  </g>
</svg>
